<svg xmlns="http://www.w3.org/2000/svg" viewBox="0 0 512 512" role="img" aria-label="KI-Wissensmanagement-System">
  <defs>
    <linearGradient id="bg" x1="0" y1="0" x2="1" y2="1">
      <stop offset="0" stop-color="#13294f" />
      <stop offset="1" stop-color="#0a1730" />
    </linearGradient>
    <linearGradient id="accent" x1="0" y1="0" x2="1" y2="1">
      <stop offset="0" stop-color="#22d3ee" />
      <stop offset="0.55" stop-color="#3b82f6" />
      <stop offset="1" stop-color="#a78bfa" />
    </linearGradient>
    <linearGradient id="page" x1="0" y1="0" x2="0" y2="1">
      <stop offset="0" stop-color="#e0f2fe" />
      <stop offset="1" stop-color="#93c5fd" />
    </linearGradient>
  </defs>

  <!-- Kachel -->
  <rect x="8" y="8" width="496" height="496" rx="104" fill="url(#bg)" />
  <rect x="8" y="8" width="496" height="496" rx="104" fill="none" stroke="#3b82f6" stroke-opacity="0.45" stroke-width="6" />

  <g fill="none" stroke="url(#accent)" stroke-linecap="round" stroke-linejoin="round">
    <!-- Gehirn-Silhouette -->
    <path
      d="M256 96C210 78 168 92 152 126C118 132 100 164 112 196C92 216 96 250 122 264C132 288 160 296 186 286C206 300 236 296 256 278C276 296 306 300 326 286C352 296 380 288 390 264C416 250 420 216 400 196C412 164 394 132 360 126C344 92 302 78 256 96Z"
      stroke-width="9" />

    <!-- Schaltungspfade im Gehirn -->
    <path d="M152 126L152 168L200 168" stroke-width="6" />
    <path d="M112 196L166 196L166 230" stroke-width="6" />
    <path d="M122 264L176 264L176 232L206 232" stroke-width="6" />
    <path d="M360 126L360 168L312 168" stroke-width="6" />
    <path d="M400 196L346 196L346 230" stroke-width="6" />
    <path d="M390 264L336 264L336 232L306 232" stroke-width="6" />
    <path d="M256 96L256 130" stroke-width="6" />
    <path d="M256 214L256 256" stroke-width="6" />
    <path d="M206 232L206 266" stroke-width="6" />
    <path d="M306 232L306 266" stroke-width="6" />
  </g>

  <!-- Knoten -->
  <g fill="#67e8f9">
    <circle cx="152" cy="126" r="10" />
    <circle cx="112" cy="196" r="10" />
    <circle cx="122" cy="264" r="10" />
    <circle cx="360" cy="126" r="10" />
    <circle cx="400" cy="196" r="10" />
    <circle cx="390" cy="264" r="10" />
    <circle cx="200" cy="168" r="8" />
    <circle cx="312" cy="168" r="8" />
    <circle cx="166" cy="230" r="8" />
    <circle cx="346" cy="230" r="8" />
    <circle cx="206" cy="266" r="8" />
    <circle cx="306" cy="266" r="8" />
  </g>

  <!-- KI-Chip -->
  <rect x="212" y="130" width="88" height="70" rx="18" fill="#0a1730" stroke="url(#accent)" stroke-width="8" />
  <g stroke="#67e8f9" stroke-width="6" stroke-linecap="round">
    <path d="M234 130L234 116" />
    <path d="M278 130L278 116" />
    <path d="M234 200L234 214" />
    <path d="M278 200L278 214" />
  </g>
  <text x="256" y="176" text-anchor="middle" font-family="ui-sans-serif, system-ui, sans-serif"
        font-size="40" font-weight="700" fill="#e0f2fe">AI</text>

  <!-- Wissensfluss Buch -> Gehirn -->
  <g fill="#7dd3fc">
    <circle cx="256" cy="300" r="7" opacity="0.95" />
    <circle cx="222" cy="316" r="5.5" opacity="0.75" />
    <circle cx="290" cy="316" r="5.5" opacity="0.75" />
    <circle cx="196" cy="330" r="4.5" opacity="0.55" />
    <circle cx="316" cy="330" r="4.5" opacity="0.55" />
  </g>

  <!-- Aufgeschlagenes Buch -->
  <g stroke="url(#page)" stroke-width="9" stroke-linejoin="round" fill="#0a1730" fill-opacity="0.35">
    <path d="M64 358C124 332 190 332 248 360L248 456C190 428 124 428 64 452Z" />
    <path d="M448 358C388 332 322 332 264 360L264 456C322 428 388 428 448 452Z" />
  </g>
  <path d="M256 356L256 458" stroke="#bae6fd" stroke-width="7" stroke-linecap="round" />
  <g stroke="#7dd3fc" stroke-width="7" stroke-linecap="round" opacity="0.7">
    <path d="M98 384C136 372 176 372 214 382" />
    <path d="M98 412C136 400 176 400 214 410" />
    <path d="M298 382C336 372 376 372 414 384" />
    <path d="M298 410C336 400 376 400 414 412" />
  </g>
</svg>
